<svg xmlns="http://www.w3.org/2000/svg" xmlns:xlink="http://www.w3.org/1999/xlink" version="1.1" x="0px" y="0px" viewBox="0 0 48 48" enable-background="new 0 0 48 48" xml:space="preserve"><g><g><g><path fill="#000000" d="M32.2,47.5H2.5c-1.1,0-2-0.9-2-2V10.4c0-1.1,0.9-2,2-2h6.1c1.1,0,2,0.9,2,2s-0.9,2-2,2H4.4v31.3h25.8     V31.9c0-1.1,0.9-2,2-2c1.1,0,2,0.9,2,2v13.7C34.1,46.6,33.3,47.5,32.2,47.5z"></path></g><g><path fill="#000000" d="M32.2,20.2c-1.1,0-2-0.9-2-2v-6h-4.6c-1.1,0-2-0.9-2-2s0.9-2,2-2h6.6c1.1,0,2,0.9,2,2v7.9     C34.1,19.4,33.3,20.2,32.2,20.2z"></path></g><g><path fill="#000000" d="M25.9,16.4C25.8,16.4,25.8,16.4,25.9,16.4h-17c-0.6,0-1.1-0.2-1.5-0.6c-0.4-0.4-0.6-1-0.5-1.5l0.9-8.8     c0.1-1,0.9-1.8,1.9-1.8h15.2c1,0,1.8,0.8,1.9,1.8l0.9,8.5c0,0.2,0.1,0.3,0.1,0.5C27.8,15.5,26.9,16.4,25.9,16.4z M11,12.5h12.7     l-0.5-4.9H11.5L11,12.5z"></path></g><g><path fill="#000000" d="M17.3,7.6c-1.1,0-2-0.9-2-2V2.5c0-1.1,0.9-2,2-2c1.1,0,2,0.9,2,2v3.2C19.3,6.7,18.4,7.6,17.3,7.6z"></path></g></g><g><path fill="#000000" d="M16.5,40.9c-0.6,0-1.1-0.2-1.5-0.7c-0.4-0.5-0.6-1.2-0.4-1.8l2.4-8.3c0.1-0.4,0.3-0.7,0.6-0.9l20.4-18.2    c0.8-0.7,2-0.6,2.8,0.2L47,18c0.3,0.4,0.5,0.9,0.5,1.4c0,0.5-0.3,1-0.7,1.4L26.4,38.9c-0.3,0.2-0.6,0.4-1,0.5l-8.6,1.5    C16.8,40.9,16.7,40.9,16.5,40.9z M20.7,31.7l-1.4,4.8l4.9-0.8l18.5-16.5l-3.5-3.9L20.7,31.7z"></path></g></g></svg>